# xmcd
#
# Track frame offsets: 
#        150
#        18748
#        39003
#        62294
#
# Disc length: 1100 seconds
#
# Revision: 0
# Processed by: cddbd v1.5.2PL0 Copyright (c) Steve Scherf et al.
# Submitted via: ExactAudioCopyFreeDBPlugin 1.0
#
DISCID=23044a04
DTITLE=Victor Cripes - Leg it! We've Been Rumbled
DYEAR=2015
DGENRE=Blues Folk Rock
TTITLE0=You'd Better Get Your Skates on Sunshine Blues
TTITLE1=Could'a Kept My Head
TTITLE2=Cocaine Blues
TTITLE3=The Giants and the Vinnies Bins
EXTD=
EXTT0=
EXTT1=
EXTT2=
EXTT3=
PLAYORDER=
